<mxfile host="app.diagrams.net" modified="2023-05-19T11:46:00.184Z" agent="Mozilla/5.0 (Windows NT 10.0; Win64; x64) AppleWebKit/537.36 (KHTML, like Gecko) Chrome/113.0.0.0 Safari/537.36" etag="m8CJv9Snttr5VygdrVmz" version="21.3.2" type="device" pages="2">
  <diagram name="Página-1" id="1N2g4Bq1KVtHdoyh-hZb">
    <mxGraphModel dx="1434" dy="756" grid="1" gridSize="10" guides="1" tooltips="1" connect="1" arrows="1" fold="1" page="1" pageScale="1" pageWidth="827" pageHeight="1169" math="0" shadow="0">
      <root>
        <mxCell id="0" />
        <mxCell id="1" parent="0" />
        <mxCell id="5waYzTfy96GrITrAyqW0-1" value="Motorista" style="swimlane;whiteSpace=wrap;html=1;" parent="1" vertex="1">
          <mxGeometry x="160" y="80" width="200" height="640" as="geometry" />
        </mxCell>
        <mxCell id="F6BKt166BYReW-WNeZs6-3" value="Dirige-se ao local" style="html=1;whiteSpace=wrap;" parent="5waYzTfy96GrITrAyqW0-1" vertex="1">
          <mxGeometry x="45" y="60" width="110" height="50" as="geometry" />
        </mxCell>
        <mxCell id="F6BKt166BYReW-WNeZs6-7" value="Regista Despesas" style="html=1;whiteSpace=wrap;" parent="5waYzTfy96GrITrAyqW0-1" vertex="1">
          <mxGeometry x="45" y="160" width="110" height="50" as="geometry" />
        </mxCell>
        <mxCell id="5waYzTfy96GrITrAyqW0-2" value="Administrativo" style="swimlane;whiteSpace=wrap;html=1;" parent="1" vertex="1">
          <mxGeometry x="360" y="80" width="200" height="640" as="geometry" />
        </mxCell>
        <mxCell id="F6BKt166BYReW-WNeZs6-9" value="Regista Utente" style="html=1;whiteSpace=wrap;" parent="5waYzTfy96GrITrAyqW0-2" vertex="1">
          <mxGeometry x="45" y="60" width="110" height="50" as="geometry" />
        </mxCell>
        <mxCell id="F6BKt166BYReW-WNeZs6-42" value="Gera Relatório" style="html=1;whiteSpace=wrap;" parent="5waYzTfy96GrITrAyqW0-2" vertex="1">
          <mxGeometry x="60" y="550" width="110" height="50" as="geometry" />
        </mxCell>
        <mxCell id="5waYzTfy96GrITrAyqW0-3" value="Médico" style="swimlane;whiteSpace=wrap;html=1;" parent="1" vertex="1">
          <mxGeometry x="560" y="80" width="200" height="640" as="geometry" />
        </mxCell>
        <mxCell id="F6BKt166BYReW-WNeZs6-11" value="" style="html=1;points=[];perimeter=orthogonalPerimeter;outlineConnect=0;targetShapes=umlLifeline;portConstraint=eastwest;newEdgeStyle={&quot;edgeStyle&quot;:&quot;elbowEdgeStyle&quot;,&quot;elbow&quot;:&quot;vertical&quot;,&quot;curved&quot;:0,&quot;rounded&quot;:0};" parent="5waYzTfy96GrITrAyqW0-3" vertex="1">
          <mxGeometry x="20" y="50" width="10" height="80" as="geometry" />
        </mxCell>
        <mxCell id="F6BKt166BYReW-WNeZs6-13" value="Regista Antecedentes" style="html=1;whiteSpace=wrap;" parent="5waYzTfy96GrITrAyqW0-3" vertex="1">
          <mxGeometry x="80" y="30" width="110" height="50" as="geometry" />
        </mxCell>
        <mxCell id="F6BKt166BYReW-WNeZs6-15" value="" style="endArrow=open;endFill=1;endSize=12;html=1;rounded=0;" parent="5waYzTfy96GrITrAyqW0-3" edge="1">
          <mxGeometry width="160" relative="1" as="geometry">
            <mxPoint x="30" y="120" as="sourcePoint" />
            <mxPoint x="80" y="120" as="targetPoint" />
          </mxGeometry>
        </mxCell>
        <mxCell id="F6BKt166BYReW-WNeZs6-16" value="Regista Consulta" style="html=1;whiteSpace=wrap;" parent="5waYzTfy96GrITrAyqW0-3" vertex="1">
          <mxGeometry x="80" y="110" width="110" height="50" as="geometry" />
        </mxCell>
        <mxCell id="F6BKt166BYReW-WNeZs6-17" value="" style="endArrow=open;endFill=1;endSize=12;html=1;rounded=0;" parent="5waYzTfy96GrITrAyqW0-3" edge="1">
          <mxGeometry width="160" relative="1" as="geometry">
            <mxPoint x="30" y="60" as="sourcePoint" />
            <mxPoint x="80" y="60" as="targetPoint" />
          </mxGeometry>
        </mxCell>
        <mxCell id="F6BKt166BYReW-WNeZs6-33" value="" style="edgeStyle=orthogonalEdgeStyle;rounded=0;orthogonalLoop=1;jettySize=auto;html=1;" parent="5waYzTfy96GrITrAyqW0-3" source="F6BKt166BYReW-WNeZs6-26" target="F6BKt166BYReW-WNeZs6-27" edge="1">
          <mxGeometry relative="1" as="geometry" />
        </mxCell>
        <mxCell id="F6BKt166BYReW-WNeZs6-26" value="Realiza Consulta" style="html=1;whiteSpace=wrap;" parent="5waYzTfy96GrITrAyqW0-3" vertex="1">
          <mxGeometry x="45" y="230" width="110" height="50" as="geometry" />
        </mxCell>
        <mxCell id="F6BKt166BYReW-WNeZs6-27" value="Condition" style="rhombus;whiteSpace=wrap;html=1;fontColor=#000000;fillColor=#ffffc0;strokeColor=#ff0000;" parent="5waYzTfy96GrITrAyqW0-3" vertex="1">
          <mxGeometry x="60" y="310" width="80" height="40" as="geometry" />
        </mxCell>
        <mxCell id="F6BKt166BYReW-WNeZs6-35" value="Receita Exames" style="html=1;whiteSpace=wrap;" parent="5waYzTfy96GrITrAyqW0-3" vertex="1">
          <mxGeometry x="10" y="380" width="70" height="50" as="geometry" />
        </mxCell>
        <mxCell id="F6BKt166BYReW-WNeZs6-36" value="" style="endArrow=open;endFill=1;endSize=12;html=1;rounded=0;exitX=0.5;exitY=1;exitDx=0;exitDy=0;entryX=0.75;entryY=0;entryDx=0;entryDy=0;" parent="5waYzTfy96GrITrAyqW0-3" source="F6BKt166BYReW-WNeZs6-34" target="F6BKt166BYReW-WNeZs6-40" edge="1">
          <mxGeometry width="160" relative="1" as="geometry">
            <mxPoint x="10" y="470" as="sourcePoint" />
            <mxPoint x="160" y="490" as="targetPoint" />
          </mxGeometry>
        </mxCell>
        <mxCell id="F6BKt166BYReW-WNeZs6-40" value="Termina Consulta" style="html=1;whiteSpace=wrap;" parent="5waYzTfy96GrITrAyqW0-3" vertex="1">
          <mxGeometry x="70" y="550" width="110" height="50" as="geometry" />
        </mxCell>
        <mxCell id="F6BKt166BYReW-WNeZs6-34" value="Receita Medicamento" style="html=1;whiteSpace=wrap;" parent="5waYzTfy96GrITrAyqW0-3" vertex="1">
          <mxGeometry x="110" y="380" width="80" height="50" as="geometry" />
        </mxCell>
        <mxCell id="5waYzTfy96GrITrAyqW0-4" value="Enfermeira" style="swimlane;whiteSpace=wrap;html=1;startSize=23;" parent="1" vertex="1">
          <mxGeometry x="760" y="80" width="200" height="640" as="geometry" />
        </mxCell>
        <mxCell id="F6BKt166BYReW-WNeZs6-18" value="" style="endArrow=open;endFill=1;endSize=12;html=1;rounded=0;" parent="5waYzTfy96GrITrAyqW0-4" edge="1">
          <mxGeometry width="160" relative="1" as="geometry">
            <mxPoint x="-10" y="60" as="sourcePoint" />
            <mxPoint x="30" y="60" as="targetPoint" />
          </mxGeometry>
        </mxCell>
        <mxCell id="F6BKt166BYReW-WNeZs6-19" value="" style="endArrow=open;endFill=1;endSize=12;html=1;rounded=0;" parent="5waYzTfy96GrITrAyqW0-4" edge="1">
          <mxGeometry width="160" relative="1" as="geometry">
            <mxPoint x="-10" y="120" as="sourcePoint" />
            <mxPoint x="30" y="120" as="targetPoint" />
          </mxGeometry>
        </mxCell>
        <mxCell id="F6BKt166BYReW-WNeZs6-20" value="" style="html=1;points=[];perimeter=orthogonalPerimeter;outlineConnect=0;targetShapes=umlLifeline;portConstraint=eastwest;newEdgeStyle={&quot;edgeStyle&quot;:&quot;elbowEdgeStyle&quot;,&quot;elbow&quot;:&quot;vertical&quot;,&quot;curved&quot;:0,&quot;rounded&quot;:0};" parent="5waYzTfy96GrITrAyqW0-4" vertex="1">
          <mxGeometry x="30" y="50" width="10" height="80" as="geometry" />
        </mxCell>
        <mxCell id="F6BKt166BYReW-WNeZs6-21" value="" style="endArrow=open;endFill=1;endSize=12;html=1;rounded=0;" parent="5waYzTfy96GrITrAyqW0-4" edge="1">
          <mxGeometry width="160" relative="1" as="geometry">
            <mxPoint x="40" y="89.5" as="sourcePoint" />
            <mxPoint x="80" y="90" as="targetPoint" />
          </mxGeometry>
        </mxCell>
        <mxCell id="F6BKt166BYReW-WNeZs6-22" value="Examina Utente" style="html=1;whiteSpace=wrap;" parent="5waYzTfy96GrITrAyqW0-4" vertex="1">
          <mxGeometry x="80" y="65" width="110" height="50" as="geometry" />
        </mxCell>
        <mxCell id="F6BKt166BYReW-WNeZs6-24" value="Recolhe Dados" style="html=1;whiteSpace=wrap;" parent="5waYzTfy96GrITrAyqW0-4" vertex="1">
          <mxGeometry x="80" y="230" width="110" height="50" as="geometry" />
        </mxCell>
        <mxCell id="F6BKt166BYReW-WNeZs6-23" value="" style="endArrow=open;endFill=1;endSize=12;html=1;rounded=0;exitX=0.5;exitY=1;exitDx=0;exitDy=0;" parent="5waYzTfy96GrITrAyqW0-4" source="F6BKt166BYReW-WNeZs6-22" target="F6BKt166BYReW-WNeZs6-24" edge="1">
          <mxGeometry width="160" relative="1" as="geometry">
            <mxPoint x="67" y="200" as="sourcePoint" />
            <mxPoint x="135" y="180" as="targetPoint" />
          </mxGeometry>
        </mxCell>
        <mxCell id="F6BKt166BYReW-WNeZs6-1" value="" style="ellipse;html=1;shape=startState;fillColor=#000000;strokeColor=#ff0000;" parent="1" vertex="1">
          <mxGeometry x="90" y="150" width="30" height="30" as="geometry" />
        </mxCell>
        <mxCell id="F6BKt166BYReW-WNeZs6-2" value="" style="edgeStyle=orthogonalEdgeStyle;html=1;verticalAlign=bottom;endArrow=open;endSize=8;strokeColor=#ff0000;rounded=0;entryX=0;entryY=0.5;entryDx=0;entryDy=0;fillColor=#0D0D0D;" parent="1" source="F6BKt166BYReW-WNeZs6-1" target="F6BKt166BYReW-WNeZs6-3" edge="1">
          <mxGeometry relative="1" as="geometry">
            <mxPoint x="190" y="145" as="targetPoint" />
          </mxGeometry>
        </mxCell>
        <mxCell id="F6BKt166BYReW-WNeZs6-4" value="" style="endArrow=open;endFill=1;endSize=12;html=1;rounded=0;exitX=0.5;exitY=1;exitDx=0;exitDy=0;" parent="1" source="F6BKt166BYReW-WNeZs6-3" edge="1">
          <mxGeometry width="160" relative="1" as="geometry">
            <mxPoint x="320" y="390" as="sourcePoint" />
            <mxPoint x="260" y="240" as="targetPoint" />
          </mxGeometry>
        </mxCell>
        <mxCell id="F6BKt166BYReW-WNeZs6-8" value="" style="endArrow=open;endFill=1;endSize=12;html=1;rounded=0;exitX=1;exitY=0.5;exitDx=0;exitDy=0;" parent="1" source="F6BKt166BYReW-WNeZs6-3" target="F6BKt166BYReW-WNeZs6-9" edge="1">
          <mxGeometry width="160" relative="1" as="geometry">
            <mxPoint x="315" y="144.5" as="sourcePoint" />
            <mxPoint x="390" y="145" as="targetPoint" />
          </mxGeometry>
        </mxCell>
        <mxCell id="F6BKt166BYReW-WNeZs6-10" value="" style="endArrow=open;endFill=1;endSize=12;html=1;rounded=0;exitX=1;exitY=0.5;exitDx=0;exitDy=0;" parent="1" source="F6BKt166BYReW-WNeZs6-9" target="F6BKt166BYReW-WNeZs6-11" edge="1">
          <mxGeometry width="160" relative="1" as="geometry">
            <mxPoint x="515" y="144.5" as="sourcePoint" />
            <mxPoint x="580" y="145" as="targetPoint" />
          </mxGeometry>
        </mxCell>
        <mxCell id="F6BKt166BYReW-WNeZs6-25" value="" style="endArrow=open;endFill=1;endSize=12;html=1;rounded=0;exitX=0;exitY=0.5;exitDx=0;exitDy=0;" parent="1" source="F6BKt166BYReW-WNeZs6-24" target="F6BKt166BYReW-WNeZs6-26" edge="1">
          <mxGeometry width="160" relative="1" as="geometry">
            <mxPoint x="320" y="390" as="sourcePoint" />
            <mxPoint x="740" y="335" as="targetPoint" />
          </mxGeometry>
        </mxCell>
        <mxCell id="F6BKt166BYReW-WNeZs6-28" value="" style="edgeStyle=orthogonalEdgeStyle;html=1;align=left;verticalAlign=bottom;endArrow=open;endSize=8;strokeColor=#ff0000;rounded=0;" parent="1" source="F6BKt166BYReW-WNeZs6-27" edge="1">
          <mxGeometry x="-1" relative="1" as="geometry">
            <mxPoint x="590" y="460" as="targetPoint" />
            <mxPoint as="offset" />
          </mxGeometry>
        </mxCell>
        <mxCell id="F6BKt166BYReW-WNeZs6-29" value="" style="edgeStyle=orthogonalEdgeStyle;html=1;align=left;verticalAlign=top;endArrow=open;endSize=8;strokeColor=#ff0000;rounded=0;" parent="1" source="F6BKt166BYReW-WNeZs6-27" edge="1">
          <mxGeometry x="-1" relative="1" as="geometry">
            <mxPoint x="730" y="460" as="targetPoint" />
          </mxGeometry>
        </mxCell>
        <mxCell id="F6BKt166BYReW-WNeZs6-41" value="" style="endArrow=open;endFill=1;endSize=12;html=1;rounded=0;exitX=0;exitY=0.5;exitDx=0;exitDy=0;" parent="1" source="F6BKt166BYReW-WNeZs6-40" edge="1">
          <mxGeometry width="160" relative="1" as="geometry">
            <mxPoint x="320" y="390" as="sourcePoint" />
            <mxPoint x="530" y="655" as="targetPoint" />
          </mxGeometry>
        </mxCell>
        <mxCell id="F6BKt166BYReW-WNeZs6-44" value="" style="ellipse;html=1;shape=endState;fillColor=#000000;strokeColor=#ff0000;" parent="1" vertex="1">
          <mxGeometry x="90" y="640" width="30" height="30" as="geometry" />
        </mxCell>
        <mxCell id="F6BKt166BYReW-WNeZs6-43" value="" style="endArrow=open;endFill=1;endSize=12;html=1;rounded=0;exitX=0;exitY=0.5;exitDx=0;exitDy=0;" parent="1" source="F6BKt166BYReW-WNeZs6-42" target="F6BKt166BYReW-WNeZs6-44" edge="1">
          <mxGeometry width="160" relative="1" as="geometry">
            <mxPoint x="50" y="640" as="sourcePoint" />
            <mxPoint x="130" y="640" as="targetPoint" />
          </mxGeometry>
        </mxCell>
        <mxCell id="F6BKt166BYReW-WNeZs6-45" value="" style="ellipse;html=1;shape=endState;fillColor=#000000;strokeColor=#ff0000;" parent="1" vertex="1">
          <mxGeometry x="90" y="470" width="30" height="30" as="geometry" />
        </mxCell>
        <mxCell id="F6BKt166BYReW-WNeZs6-37" value="" style="endArrow=open;endFill=1;endSize=12;html=1;rounded=0;exitX=0;exitY=0.5;exitDx=0;exitDy=0;" parent="1" source="F6BKt166BYReW-WNeZs6-35" target="F6BKt166BYReW-WNeZs6-45" edge="1">
          <mxGeometry width="160" relative="1" as="geometry">
            <mxPoint x="700" y="540" as="sourcePoint" />
            <mxPoint x="130" y="485" as="targetPoint" />
          </mxGeometry>
        </mxCell>
        <mxCell id="F6BKt166BYReW-WNeZs6-48" value="Espera pelos resultados" style="text;html=1;strokeColor=none;fillColor=none;align=center;verticalAlign=middle;whiteSpace=wrap;rounded=0;" parent="1" vertex="1">
          <mxGeometry x="62.5" y="510" width="85" height="30" as="geometry" />
        </mxCell>
        <mxCell id="F6BKt166BYReW-WNeZs6-49" value="Termina processo" style="text;html=1;strokeColor=none;fillColor=none;align=center;verticalAlign=middle;whiteSpace=wrap;rounded=0;" parent="1" vertex="1">
          <mxGeometry x="75" y="680" width="60" height="30" as="geometry" />
        </mxCell>
      </root>
    </mxGraphModel>
  </diagram>
  <diagram id="l0WgPEK_FeNvttV4ZsF4" name="Página-2">
    <mxGraphModel dx="1434" dy="756" grid="1" gridSize="10" guides="1" tooltips="1" connect="1" arrows="1" fold="1" page="1" pageScale="1" pageWidth="827" pageHeight="1169" math="0" shadow="0">
      <root>
        <mxCell id="0" />
        <mxCell id="1" parent="0" />
      </root>
    </mxGraphModel>
  </diagram>
</mxfile>
